<svg width="167" height="34" viewBox="0 0 167 34" fill="none" xmlns="http://www.w3.org/2000/svg">
<g clip-path="url(#clip0_703_414)">
<path d="M32.9223 0.125001L49.3838 0.125C40.2926 0.125 32.923 7.63814 32.923 16.9049C32.923 26.1724 25.5534 33.6856 16.4615 33.6856C7.37027 33.6856 3.97389e-07 26.1724 0 16.9049C-3.97392e-07 7.63746 7.3696 0.125002 16.4615 0.125001L32.9223 0.125001Z" fill="url(#paint0_linear_703_414)"/>
<path d="M23.3412 14.2435L15.1946 9.44895C13.4081 8.39788 11.1757 9.71206 11.1757 11.8142V21.4033C11.1757 23.5062 13.4081 24.8197 15.1946 23.7686L23.3412 18.974C25.127 17.923 25.127 15.2946 23.3412 14.2435Z" fill="#FFFFFC"/>
</g>
<path d="M41.0963 21.9969C41.1605 21.7862 41.2246 21.5568 41.2888 21.3089C41.353 21.0486 41.4108 20.7386 41.4621 20.3791C41.5263 20.0072 41.5584 19.6663 41.5584 19.3564V12.0671C41.5584 11.7572 41.5263 11.4225 41.4621 11.063C41.4108 10.6911 41.353 10.3812 41.2888 10.1333C41.2246 9.87293 41.1605 9.6374 41.0963 9.42665C41.0321 9.21591 41 9.10434 41 9.09194V9.01756H45.5249V9.09194C45.5249 9.10434 45.4928 9.21591 45.4286 9.42665C45.3644 9.6374 45.3002 9.87293 45.236 10.1333C45.1719 10.3812 45.1077 10.6911 45.0435 11.063C44.9922 11.4225 44.9665 11.7572 44.9665 12.0671V19.3564C44.9665 19.6663 44.9922 20.0072 45.0435 20.3791C45.1077 20.7386 45.1719 21.0486 45.236 21.3089C45.3002 21.5568 45.3644 21.7862 45.4286 21.9969C45.4928 22.2076 45.5249 22.3192 45.5249 22.3316V22.406H41V22.3316C41 22.3192 41.0321 22.2076 41.0963 21.9969ZM45.2746 15.5816L48.8752 12.3461C49.3245 11.937 49.6261 11.4845 49.7802 10.9886C49.947 10.4928 50.0305 10.1147 50.0305 9.85434C50.0305 9.81715 50.0241 9.72417 50.0112 9.57541C49.9984 9.42665 49.9663 9.27169 49.915 9.11054V8.99897H54.0355V9.07335C53.4963 9.44525 52.6748 10.1209 51.5709 11.1002L48.105 14.2428L52.3988 19.9329C52.6299 20.2428 52.9123 20.5961 53.246 20.9928C53.5798 21.3771 53.8558 21.6932 54.074 21.9411C54.305 22.1767 54.427 22.3068 54.4398 22.3316V22.406H49.164L49.1063 22.1085C49.0677 21.9225 49.0228 21.7242 48.9715 21.5134C48.9201 21.2903 48.8303 21.0238 48.7019 20.7138C48.5735 20.4039 48.4259 20.125 48.259 19.8771L45.236 15.7676C45.2232 15.7428 45.2168 15.718 45.2168 15.6932C45.2168 15.656 45.236 15.6188 45.2746 15.5816Z" fill="white"/>
<path d="M55.0797 19.5795C55.0797 18.6374 55.452 17.8998 56.1965 17.3667C56.9538 16.8213 57.8139 16.5486 58.7766 16.5486C58.8793 16.5486 58.982 16.5486 59.0847 16.5486C59.842 16.5733 60.4775 16.6911 60.9909 16.9019V15.8419C60.9909 14.4411 60.7534 13.7407 60.2785 13.7407C59.8035 13.7407 59.0013 14.1188 57.8716 14.875C56.742 15.6188 56.1066 16.0837 55.9654 16.2696H55.8691V13.5176C57.7048 13.0837 59.2387 12.8667 60.471 12.8667C61.7547 12.8667 62.6982 13.1581 63.3015 13.7407C63.9048 14.3233 64.2065 15.0981 64.2065 16.0651V19.5795C64.2065 20.187 64.2706 20.5713 64.399 20.7324C64.5402 20.8812 64.6878 20.9556 64.8419 20.9556C64.9959 20.9556 65.1885 20.8998 65.4195 20.7882L65.458 20.844C65.3938 21.3523 65.1692 21.7676 64.7841 22.0899C64.4118 22.4122 63.9176 22.5733 63.3015 22.5733C62.1462 22.5733 61.4209 22.0589 61.1257 21.03C60.869 21.4514 60.4903 21.8171 59.9897 22.1271C59.5019 22.4246 58.905 22.5733 58.199 22.5733C57.2234 22.5733 56.4596 22.2758 55.9077 21.6808C55.3557 21.0733 55.0797 20.3729 55.0797 19.5795ZM58.43 19.1147C58.43 19.6353 58.5712 20.063 58.8536 20.3977C59.136 20.7324 59.5211 20.8998 60.0089 20.8998C60.3812 20.8998 60.7149 20.7696 61.0102 20.5093C60.9973 20.4101 60.9909 20.2552 60.9909 20.0444V17.4783C60.9396 17.4659 60.8561 17.4597 60.7406 17.4597C60.6251 17.4473 60.5416 17.4411 60.4903 17.4411C60.4004 17.4287 60.3106 17.4225 60.2207 17.4225C59.6688 17.4225 59.2323 17.5713 58.9114 17.8688C58.5905 18.1663 58.43 18.5816 58.43 19.1147Z" fill="white"/>
<path d="M70.3654 8.47831V19.3564C70.3654 19.5671 70.3782 19.7965 70.4039 20.0444C70.4296 20.28 70.4617 20.4969 70.5002 20.6952C70.5387 20.8936 70.5836 21.0919 70.635 21.2903C70.6863 21.4886 70.7312 21.656 70.7697 21.7924C70.8082 21.9163 70.8403 22.0341 70.866 22.1457C70.9045 22.2572 70.9238 22.3192 70.9238 22.3316V22.406H66.5915V22.3316C66.5915 22.3192 66.6043 22.2572 66.63 22.1457C66.6685 22.0341 66.707 21.9163 66.7455 21.7924C66.784 21.656 66.8289 21.4886 66.8803 21.2903C66.9316 21.0919 66.9765 20.8936 67.0151 20.6952C67.0536 20.4969 67.0857 20.28 67.1113 20.0444C67.137 19.7965 67.1498 19.5671 67.1498 19.3564V11.8998C67.1498 11.6519 67.1306 11.3853 67.0921 11.1002C67.0536 10.8151 67.0022 10.5548 66.938 10.3192C66.8867 10.0837 66.8353 9.87293 66.784 9.68698C66.7327 9.50103 66.6813 9.33988 66.63 9.20351C66.5786 9.05475 66.5529 8.97417 66.5529 8.96178L66.5337 8.8874L70.3654 8.47831Z" fill="white"/>
<path d="M73.5803 14.1498C74.5045 13.2944 75.724 12.8667 77.2387 12.8667C78.0602 12.8667 78.7791 13.0031 79.3952 13.2758C80.0114 13.5486 80.4863 13.9143 80.8201 14.3729C81.1667 14.8316 81.417 15.3275 81.571 15.8605C81.7379 16.3812 81.8213 16.939 81.8213 17.5341H75.7368C75.9807 19.5795 76.9499 20.6023 78.6443 20.6023C79.5557 20.6023 80.5248 20.28 81.5518 19.6353L81.6288 19.6911C81.3592 20.4349 80.8329 21.1105 80.0499 21.718C79.2797 22.313 78.3234 22.6105 77.1809 22.6105C76.3466 22.6105 75.5571 22.4432 74.8126 22.1085C74.0809 21.7738 73.4583 21.2283 72.9449 20.4721C72.4314 19.7035 72.1747 18.7862 72.1747 17.72C72.1747 16.2076 72.6432 15.0176 73.5803 14.1498ZM75.6791 16.5671C75.6791 16.8027 75.6855 16.9762 75.6983 17.0878L78.6443 16.4184C78.6186 14.5837 78.1372 13.6663 77.2002 13.6663C76.6354 13.6663 76.2374 13.9452 76.0064 14.5031C75.7882 15.0486 75.6791 15.6932 75.6791 16.437C75.6791 16.4866 75.6791 16.53 75.6791 16.5671Z" fill="white"/>
<path d="M83.5616 21.9969C83.6258 21.7862 83.6899 21.5568 83.7541 21.3089C83.8183 21.0486 83.8761 20.7386 83.9274 20.3791C83.9916 20.0072 84.0237 19.6663 84.0237 19.3564V16.0279C84.0237 15.718 83.9916 15.3833 83.9274 15.0238C83.8761 14.6519 83.8183 14.3419 83.7541 14.094C83.6899 13.8337 83.6258 13.5981 83.5616 13.3874C83.4974 13.1767 83.4653 13.0651 83.4653 13.0527V12.9783H87.22V19.3564C87.22 19.6663 87.2457 20.0072 87.297 20.3791C87.3612 20.7386 87.4254 21.0486 87.4896 21.3089C87.5537 21.5568 87.6179 21.7862 87.6821 21.9969C87.7463 22.2076 87.7784 22.3192 87.7784 22.3316V22.406H83.4653V22.3316C83.4653 22.3192 83.4974 22.2076 83.5616 21.9969ZM84.0815 8.66426C84.4666 8.30475 84.9287 8.125 85.4678 8.125C86.0198 8.125 86.4883 8.31095 86.8734 8.68285C87.2585 9.04235 87.451 9.48244 87.451 10.0031C87.451 10.5238 87.2521 10.97 86.8541 11.3419C86.4691 11.7014 86.0069 11.8812 85.4678 11.8812C84.9415 11.8812 84.4794 11.7014 84.0815 11.3419C83.6964 10.97 83.5038 10.5238 83.5038 10.0031C83.5038 9.48244 83.6964 9.03616 84.0815 8.66426Z" fill="white"/>
<path d="M89.1394 17.6643C89.1394 16.1271 89.5117 14.9432 90.2562 14.1126C91.0135 13.282 91.9249 12.8667 92.9904 12.8667C94.2355 12.8667 95.179 13.344 95.8208 14.2986V11.8998C95.8208 11.6519 95.7951 11.3915 95.7438 11.1188C95.6924 10.8337 95.6218 10.5733 95.532 10.3378C95.455 10.1023 95.3779 9.89773 95.3009 9.72417C95.2367 9.53822 95.1726 9.37087 95.1084 9.22211L94.9929 8.99897V8.92459L99.0364 8.47831V19.3564C99.0364 19.6663 99.062 20.0072 99.1134 20.3791C99.1776 20.7386 99.2417 21.0486 99.3059 21.3089C99.3701 21.5568 99.4343 21.7862 99.4985 21.9969C99.5627 22.2076 99.5947 22.3192 99.5947 22.3316V22.406H96.668C96.6167 22.3068 96.5396 22.1767 96.437 22.0155C96.3343 21.8419 96.2444 21.6808 96.1674 21.532C96.0904 21.3833 96.0262 21.2283 95.9748 21.0672C95.256 22.0837 94.2868 22.5919 93.0674 22.5919C92.0148 22.5919 91.097 22.1643 90.3139 21.3089C89.5309 20.4535 89.1394 19.2386 89.1394 17.6643ZM92.7786 19.2634C92.8812 19.7469 93.0802 20.1684 93.3755 20.5279C93.6707 20.875 94.0558 21.0486 94.5307 21.0486C94.9415 21.0486 95.3844 20.8936 95.8593 20.5837C95.8336 20.3357 95.8208 20.1374 95.8208 19.9886V15.0795C95.3844 14.7696 94.9479 14.6147 94.5115 14.6147C93.8568 14.6147 93.3755 14.8936 93.0674 15.4514C92.7721 16.0093 92.6245 16.7345 92.6245 17.6271C92.6245 18.2469 92.6759 18.7924 92.7786 19.2634Z" fill="white"/>
<path d="M102.49 14.0754C103.478 13.2696 104.717 12.8667 106.206 12.8667C107.682 12.8667 108.914 13.2758 109.903 14.094C110.904 14.9122 111.405 16.1023 111.405 17.6643C111.405 19.251 110.904 20.4721 109.903 21.3275C108.902 22.1829 107.669 22.6105 106.206 22.6105C104.73 22.6105 103.491 22.1829 102.49 21.3275C101.501 20.4721 101.007 19.251 101.007 17.6643C101.007 16.0899 101.501 14.8936 102.49 14.0754ZM104.608 17.6643C104.608 20.4287 105.14 21.811 106.206 21.811C106.604 21.811 106.925 21.594 107.169 21.1601C107.425 20.7138 107.599 20.1994 107.688 19.6167C107.778 19.0341 107.823 18.3833 107.823 17.6643C107.823 16.5486 107.695 15.6002 107.438 14.8192C107.194 14.0382 106.783 13.6477 106.206 13.6477C105.14 13.6477 104.608 14.9866 104.608 17.6643Z" fill="white"/>
<path d="M112.917 15.7862C112.917 14.8812 113.296 14.1684 114.053 13.6477C114.824 13.1271 115.85 12.8667 117.134 12.8667C118.354 12.8667 119.547 13.0899 120.715 13.5362V16.251H120.619C120.131 15.7304 119.721 15.3151 119.387 15.0052C119.066 14.6952 118.662 14.3977 118.174 14.1126C117.686 13.8275 117.23 13.6849 116.807 13.6849C116.473 13.6849 116.184 13.7655 115.94 13.9267C115.696 14.0754 115.574 14.2986 115.574 14.5961C115.574 15.03 115.934 15.4019 116.653 15.7118C116.884 15.811 117.301 15.9597 117.904 16.1581C117.994 16.1952 118.065 16.22 118.116 16.2324C119.259 16.6167 120.054 17.0692 120.504 17.5899C120.953 18.1105 121.178 18.7242 121.178 19.4308C121.178 20.4845 120.78 21.2779 119.984 21.811C119.201 22.3316 118.251 22.5919 117.134 22.5919C115.979 22.5919 114.669 22.344 113.206 21.8481V19.0217H113.302C113.379 19.0961 113.578 19.2944 113.899 19.6167C114.22 19.9267 114.445 20.1436 114.573 20.2676C114.714 20.3791 114.926 20.5589 115.209 20.8068C115.504 21.0424 115.748 21.2097 115.94 21.3089C116.133 21.4081 116.357 21.5072 116.614 21.6064C116.871 21.6932 117.115 21.7366 117.346 21.7366C117.705 21.7366 118.007 21.6498 118.251 21.4762C118.508 21.2903 118.636 21.0362 118.636 20.7138C118.636 20.5775 118.617 20.4597 118.578 20.3605C118.54 20.249 118.456 20.1436 118.328 20.0444C118.2 19.9329 118.084 19.8461 117.981 19.7841C117.891 19.7221 117.718 19.6415 117.461 19.5424C117.205 19.4432 117.006 19.3688 116.865 19.3192C116.736 19.2696 116.492 19.1829 116.133 19.0589C113.989 18.3151 112.917 17.2242 112.917 15.7862Z" fill="white"/>
<path d="M124.173 14.1498C125.097 13.2944 126.323 12.8667 127.85 12.8667C128.158 12.8667 128.467 12.8853 128.775 12.9225C129.083 12.9597 129.397 13.0217 129.718 13.1085C130.052 13.1952 130.296 13.2634 130.45 13.313C130.617 13.3502 130.867 13.4308 131.201 13.5548L131.701 13.7221L131.759 16.7345H131.663C131.175 15.9907 130.591 15.2965 129.911 14.6519C129.23 13.9948 128.576 13.6663 127.947 13.6663C127.356 13.6663 126.926 13.9514 126.657 14.5217C126.4 15.0919 126.271 15.7924 126.271 16.6229C126.271 16.6601 126.271 16.6973 126.271 16.7345C126.297 19.313 127.286 20.6023 129.237 20.6023C130.161 20.6023 131.124 20.2924 132.125 19.6725L132.183 19.7283C131.913 20.4721 131.387 21.1415 130.604 21.7366C129.834 22.3192 128.89 22.6105 127.773 22.6105C127.157 22.6105 126.56 22.5114 125.983 22.313C125.405 22.1147 124.872 21.8233 124.385 21.4391C123.897 21.0548 123.505 20.5403 123.21 19.8957C122.915 19.251 122.767 18.5258 122.767 17.72C122.767 16.2076 123.236 15.0176 124.173 14.1498Z" fill="white"/>
<path d="M135.064 14.0754C136.052 13.2696 137.291 12.8667 138.78 12.8667C140.256 12.8667 141.489 13.2758 142.477 14.094C143.478 14.9122 143.979 16.1023 143.979 17.6643C143.979 19.251 143.478 20.4721 142.477 21.3275C141.476 22.1829 140.243 22.6105 138.78 22.6105C137.304 22.6105 136.065 22.1829 135.064 21.3275C134.076 20.4721 133.581 19.251 133.581 17.6643C133.581 16.0899 134.076 14.8936 135.064 14.0754ZM137.182 17.6643C137.182 20.4287 137.715 21.811 138.78 21.811C139.178 21.811 139.499 21.594 139.743 21.1601C140 20.7138 140.173 20.1994 140.263 19.6167C140.353 19.0341 140.398 18.3833 140.398 17.6643C140.398 16.5486 140.269 15.6002 140.012 14.8192C139.769 14.0382 139.358 13.6477 138.78 13.6477C137.715 13.6477 137.182 14.9866 137.182 17.6643Z" fill="white"/>
<path d="M145.359 26.125V26.0506C145.359 26.0382 145.391 25.9267 145.455 25.7159C145.519 25.5052 145.583 25.2696 145.647 25.0093C145.712 24.7614 145.769 24.4514 145.821 24.0795C145.885 23.72 145.917 23.3853 145.917 23.0754V16.0651C145.917 15.7552 145.885 15.4205 145.821 15.061C145.769 14.6891 145.712 14.3791 145.647 14.1312C145.583 13.8709 145.519 13.6353 145.455 13.4246C145.391 13.2138 145.359 13.1023 145.359 13.0899V13.0155H145.898L149.133 12.9783V14.28C149.441 13.8213 149.845 13.4742 150.346 13.2386C150.846 12.9907 151.379 12.8667 151.944 12.8667C153.009 12.8667 153.908 13.2758 154.639 14.094C155.371 14.9122 155.737 16.0837 155.737 17.6085C155.737 19.2076 155.333 20.4411 154.524 21.3089C153.728 22.1643 152.804 22.5919 151.751 22.5919C150.711 22.5919 149.839 22.1952 149.133 21.4019V23.0754C149.133 23.3853 149.158 23.72 149.21 24.0795C149.274 24.4514 149.338 24.7614 149.402 25.0093C149.466 25.2696 149.524 25.5052 149.575 25.7159C149.64 25.9267 149.672 26.0382 149.672 26.0506V26.125H145.359ZM150.307 21.0486C151 21.0486 151.501 20.7262 151.809 20.0816C152.117 19.4246 152.271 18.6064 152.271 17.6271C152.271 16.7593 152.123 16.0465 151.828 15.4886C151.533 14.9184 151.064 14.6333 150.423 14.6333C149.986 14.6333 149.556 14.782 149.133 15.0795V20.6767C149.543 20.9246 149.935 21.0486 150.307 21.0486Z" fill="white"/>
<path d="M158.759 14.1498C159.683 13.2944 160.903 12.8667 162.417 12.8667C163.239 12.8667 163.958 13.0031 164.574 13.2758C165.19 13.5486 165.665 13.9143 165.999 14.3729C166.345 14.8316 166.596 15.3275 166.75 15.8605C166.917 16.3812 167 16.939 167 17.5341H160.915C161.159 19.5795 162.129 20.6023 163.823 20.6023C164.734 20.6023 165.704 20.28 166.73 19.6353L166.807 19.6911C166.538 20.4349 166.012 21.1105 165.229 21.718C164.458 22.313 163.502 22.6105 162.36 22.6105C161.525 22.6105 160.736 22.4432 159.991 22.1085C159.26 21.7738 158.637 21.2283 158.124 20.4721C157.61 19.7035 157.353 18.7862 157.353 17.72C157.353 16.2076 157.822 15.0176 158.759 14.1498ZM160.858 16.5671C160.858 16.8027 160.864 16.9762 160.877 17.0878L163.823 16.4184C163.797 14.5837 163.316 13.6663 162.379 13.6663C161.814 13.6663 161.416 13.9452 161.185 14.5031C160.967 15.0486 160.858 15.6932 160.858 16.437C160.858 16.4866 160.858 16.53 160.858 16.5671Z" fill="white"/>
<defs>
<linearGradient id="paint0_linear_703_414" x1="0" y1="6.125" x2="36" y2="6.125" gradientUnits="userSpaceOnUse">
<stop stop-color="#02A8FF"/>
<stop offset="0.193867" stop-color="#02A8FF"/>
<stop offset="0.194412" stop-color="#7E2FD3"/>
<stop offset="0.387836" stop-color="#7E2FD3"/>
<stop offset="0.389019" stop-color="#F81616"/>
<stop offset="0.583659" stop-color="#F81616"/>
<stop offset="0.583767" stop-color="#F84616"/>
<stop offset="0.777344" stop-color="#F84616"/>
<stop offset="0.777669" stop-color="#FAD01D"/>
<stop offset="0.99973" stop-color="#FAD01D"/>
<stop offset="1" stop-color="#05B178"/>
</linearGradient>
<clipPath id="clip0_703_414">
<rect width="50" height="33.75" fill="white" transform="translate(0 0.125)"/>
</clipPath>
</defs>
</svg>
